# xmcd
#
# Track frame offsets: 
#        150
#        2533
#        20272
#        39247
#        58890
#        76063
#        92714
#        118634
#        137442
#        154740
#        166806
#        196407
#
# Disc length: 4440 seconds
#
# Revision: 0
# Processed by: cddbd v1.5.1PL2 Copyright (c) Steve Scherf et al.
# Submitted via: ExactAudioCopy v0.95a5
#
DISCID=8411560c
DTITLE=Psapp - Tiger, My Friend
DYEAR=2005
DGENRE=Synthpop
TTITLE0=Northdown Flat BI
TTITLE1=Rear Moth
TTITLE2=leaving in coffins
TTITLE3=Calm Down
TTITLE4=Velvet Pony
TTITLE5=About Fun
TTITLE6=Curuncula
TTITLE7=King Kong
TTITLE8=The Counter
TTITLE9=Chapter
TTITLE10=Tiger, My Friend
TTITLE11=Data
EXTD=
EXTT0=
EXTT1=
EXTT2=
EXTT3=
EXTT4=
EXTT5=
EXTT6=
EXTT7=
EXTT8=
EXTT9=
EXTT10=
EXTT11=
PLAYORDER=
